HIERARCHY
ROOT Hips
{
	OFFSET -0.001795 -0.223333 0.028219
	CHANNELS 6 Xposition Yposition Zposition Zrotation Yrotation Xrotation 
	JOINT LeftUpLeg
	{
		OFFSET 0.069520 -0.091406 -0.006815
		CHANNELS 3 Zrotation Yrotation Xrotation
		JOINT LeftLeg
		{
			OFFSET 0.034277 -0.375199 -0.004496
			CHANNELS 3 Zrotation Yrotation Xrotation
			JOINT LeftFoot
			{
				OFFSET -0.013596 -0.397961 -0.043693
				CHANNELS 3 Zrotation Yrotation Xrotation
				JOINT LeftToe
				{
					OFFSET 0.026358 -0.055791 0.119288
					CHANNELS 3 Zrotation Yrotation Xrotation
					End Site
					{
						OFFSET 0.000000 0.000000 0.000000
					}
				}
			}
		}
	}
	JOINT RightUpLeg
	{
		OFFSET -0.067670 -0.090522 -0.004320
		CHANNELS 3 Zrotation Yrotation Xrotation
		JOINT RightLeg
		{
			OFFSET -0.038290 -0.382569 -0.008850
			CHANNELS 3 Zrotation Yrotation Xrotation
			JOINT RightFoot
			{
				OFFSET 0.015774 -0.398415 -0.042312
				CHANNELS 3 Zrotation Yrotation Xrotation
				JOINT RightToe
				{
					OFFSET -0.025372 -0.048144 0.123348
					CHANNELS 3 Zrotation Yrotation Xrotation
					End Site
					{
						OFFSET 0.000000 0.000000 0.000000
					}
				}
			}
		}
	}
	JOINT Spine
	{
		OFFSET -0.002533 0.108963 -0.026696
		CHANNELS 3 Zrotation Yrotation Xrotation
		JOINT Spine1
		{
			OFFSET 0.005487 0.135180 0.001092
			CHANNELS 3 Zrotation Yrotation Xrotation
			JOINT Spine2
			{
				OFFSET 0.001457 0.052922 0.025425
				CHANNELS 3 Zrotation Yrotation Xrotation
				JOINT Neck
				{
					OFFSET -0.002778 0.213870 -0.042857
					CHANNELS 3 Zrotation Yrotation Xrotation
					JOINT Head
					{
						OFFSET 0.005152 0.064970 0.051349
						CHANNELS 3 Zrotation Yrotation Xrotation
						End Site
						{
							OFFSET 0.000000 0.000000 0.000000
						}
					}
				}
				JOINT LeftShoulder
				{
					OFFSET 0.078845 0.121749 -0.034090
					CHANNELS 3 Zrotation Yrotation Xrotation
					JOINT LeftArm
					{
						OFFSET 0.090977 0.030469 -0.008868
						CHANNELS 3 Zrotation Yrotation Xrotation
						JOINT LeftForeArm
						{
							OFFSET 0.259612 -0.012772 -0.027456
							CHANNELS 3 Zrotation Yrotation Xrotation
							JOINT LeftHand
							{
								OFFSET 0.249234 0.008986 -0.001171
								CHANNELS 3 Zrotation Yrotation Xrotation
								End Site
								{
									OFFSET 0.000000 0.000000 0.000000
								}
							}
						}
					}
				}
				JOINT RightShoulder
				{
					OFFSET -0.081759 0.118833 -0.038615
					CHANNELS 3 Zrotation Yrotation Xrotation
					JOINT RightArm
					{
						OFFSET -0.096012 0.032551 -0.009143
						CHANNELS 3 Zrotation Yrotation Xrotation
						JOINT RightForeArm
						{
							OFFSET -0.253742 -0.013329 -0.021401
							CHANNELS 3 Zrotation Yrotation Xrotation
							JOINT RightHand
							{
								OFFSET -0.255298 0.007772 -0.005559
								CHANNELS 3 Zrotation Yrotation Xrotation
								End Site
								{
									OFFSET 0.000000 0.000000 0.000000
								}
							}
						}
					}
				}
			}
		}
	}
}
MOTION
Frames: 17
Frame Time: 0.050000
-0.819153 0.558660 1.772476 -176.281867 22.492449 -177.344134 126.712386 -21.073540 -89.795633 -13.560309 -50.771808 -109.546811 177.796723 7.873894 130.284500 0.000000 0.000000 0.000000 108.629358 -5.486263 -95.305609 12.594413 -66.651461 -146.220648 -169.268168 -18.115658 136.837273 0.000000 0.000000 0.000000 -114.928088 -18.140942 90.270079 -20.279444 0.631238 -31.932098 141.289326 56.941038 117.544871 15.267039 -6.076836 -22.995531 0.000000 0.000000 0.000000 14.443885 -29.584968 -10.909384 -44.487499 -23.054625 -7.569854 21.942388 -63.683010 -44.245981 0.000000 0.000000 0.000000 -2.755608 9.992758 29.830289 36.065366 55.120291 24.098687 -102.600358 26.160975 -10.438355 0.000000 0.000000 0.000000 
-0.815693 0.571919 1.756166 -176.153357 21.968929 -177.009162 121.855713 -22.047613 -89.584282 -12.269032 -54.954732 -107.978671 172.627428 3.547321 133.178579 0.000000 0.000000 0.000000 106.379327 -6.805006 -95.239690 11.913353 -71.128232 -143.669801 -145.535800 -6.813917 141.452597 0.000000 0.000000 0.000000 -111.336356 -19.522011 89.821710 -21.205924 0.091383 -30.777387 137.841576 58.273626 114.177691 15.785010 -4.280668 -25.416176 0.000000 0.000000 0.000000 15.052864 -30.086135 -11.673815 -45.418014 -22.684266 -8.714214 17.457935 -64.325672 -41.470366 0.000000 0.000000 0.000000 -3.462833 9.280487 30.601990 36.124169 57.396153 26.282625 -99.483438 26.657936 -10.677979 0.000000 0.000000 0.000000 
-0.811594 0.583540 1.739973 -176.065134 21.537161 -176.547867 118.107151 -22.684233 -89.491575 -12.229140 -58.602977 -106.288804 166.533867 0.450095 136.777922 0.000000 0.000000 0.000000 104.183267 -8.174271 -94.783189 15.603075 -73.889146 -146.623280 -122.381816 -0.639530 148.175461 0.000000 0.000000 0.000000 -105.525913 -21.719258 88.453769 -22.380195 -0.822453 -28.872702 131.185265 60.675960 108.278239 15.335850 -2.390278 -27.845904 0.000000 0.000000 0.000000 14.888503 -31.684514 -13.703891 -45.231819 -20.005631 -8.533411 14.290103 -66.984913 -40.869765 0.000000 0.000000 0.000000 -2.675047 9.169602 33.476851 31.908915 60.039617 24.752093 -96.280363 26.095014 -11.073165 0.000000 0.000000 0.000000 
-0.807292 0.594670 1.724524 -175.927990 20.744541 -176.234016 112.406693 -23.434763 -89.653047 -12.840665 -64.095357 -102.638283 160.659466 -3.990491 140.937090 0.000000 0.000000 0.000000 100.831474 -10.143538 -94.195334 23.979556 -76.554157 -153.718789 -105.460282 0.644598 152.701190 0.000000 0.000000 0.000000 -101.865492 -23.181657 87.516888 -23.195191 -1.144344 -26.827270 126.065448 62.077491 103.295823 15.013271 -1.050853 -29.925452 0.000000 0.000000 0.000000 15.472790 -32.709010 -14.543096 -44.636384 -18.525050 -8.630380 11.961159 -68.413152 -40.622411 0.000000 0.000000 0.000000 -3.659361 10.195184 36.046610 28.836989 62.756942 24.677139 -92.512359 23.461342 -9.481226 0.000000 0.000000 0.000000 
-0.802641 0.607509 1.709876 -175.949062 20.540685 -175.506945 107.303551 -24.530223 -88.986581 -15.495396 -69.005213 -97.725801 156.511616 -4.861038 143.686169 0.000000 0.000000 0.000000 96.785479 -12.413419 -92.557025 38.170387 -79.023345 -166.875957 -99.396784 1.773774 154.506976 0.000000 0.000000 0.000000 -95.341787 -25.162101 85.447950 -23.701485 -2.017416 -24.642787 116.092723 63.831408 94.562382 13.713165 1.193459 -32.456234 0.000000 0.000000 0.000000 15.940475 -33.394937 -15.323863 -43.978892 -17.914892 -8.564765 11.422803 -71.266978 -42.454730 0.000000 0.000000 0.000000 -4.582637 10.803398 38.297655 26.041779 64.996726 24.631593 -88.434118 20.319419 -7.168900 0.000000 0.000000 0.000000 
-0.797967 0.626715 1.695650 -175.877657 20.838644 -174.809719 100.910533 -26.094388 -87.162382 -27.858563 -74.778676 -81.543793 145.984784 -2.664418 148.857527 0.000000 0.000000 0.000000 90.975889 -15.227829 -89.604598 75.246416 -84.135894 158.934209 -71.060656 0.555632 164.596076 0.000000 0.000000 0.000000 -90.992950 -26.476499 83.302323 -24.055359 -2.292630 -22.718557 107.750082 64.637264 87.117256 12.973132 3.386158 -35.133496 0.000000 0.000000 0.000000 16.461377 -33.105383 -14.811071 -43.105635 -18.016429 -8.309995 12.111908 -73.548473 -45.211047 0.000000 0.000000 0.000000 -5.574533 12.382025 39.830731 24.272641 67.139997 24.971150 -85.686047 18.815202 -7.115786 0.000000 0.000000 0.000000 
-0.793252 0.652100 1.681501 -175.484224 20.742036 -173.889336 92.759560 -27.663161 -85.216212 -59.900420 -78.663115 -44.586424 130.040513 -0.763197 156.736545 0.000000 0.000000 0.000000 84.810210 -17.743522 -86.513692 167.604049 -81.752275 70.705869 -11.544694 -18.396371 171.423625 0.000000 0.000000 0.000000 -87.797415 -27.469666 81.437984 -24.210132 -2.595715 -21.249710 102.962123 64.595877 82.856294 12.725682 4.543091 -37.239569 0.000000 0.000000 0.000000 16.550178 -32.978731 -16.182985 -43.336784 -17.062686 -9.023366 6.406728 -76.019662 -41.888786 0.000000 0.000000 0.000000 -5.705688 12.643778 43.443884 18.351527 69.328652 21.947141 -83.701325 14.943168 -4.837470 0.000000 0.000000 0.000000 
-0.788944 0.680362 1.667673 -175.321710 21.152658 -173.013313 84.562929 -29.093838 -82.391281 -95.984542 -74.766129 -2.524109 109.286063 8.608085 160.536970 0.000000 0.000000 0.000000 77.865793 -19.924110 -82.777819 -162.605903 -71.063486 47.135885 41.340381 -31.457953 151.658976 0.000000 0.000000 0.000000 -83.938698 -28.241985 79.326835 -24.182188 -2.866874 -19.831911 95.516436 64.611358 75.744972 11.837981 5.840223 -39.493315 0.000000 0.000000 0.000000 14.709253 -34.010094 -18.323085 -42.989335 -13.980047 -7.592671 10.437040 -76.853149 -44.183168 0.000000 0.000000 0.000000 -5.686196 13.790679 43.857808 19.041289 70.405857 22.629576 -80.924707 15.049088 -6.043469 0.000000 0.000000 0.000000 
-0.785392 0.709032 1.655179 -174.811189 21.702778 -171.852023 76.145812 -30.227151 -78.851077 -108.141243 -66.190573 16.820306 89.146877 17.372987 157.209429 0.000000 0.000000 0.000000 71.410625 -21.432503 -79.370427 -150.020080 -59.404251 41.667141 69.139897 -28.914735 132.094954 0.000000 0.000000 0.000000 -79.790370 -28.804574 77.199319 -24.502581 -3.306763 -18.388485 88.940128 64.574373 69.727737 11.518477 5.861937 -39.333576 0.000000 0.000000 0.000000 14.118409 -34.003167 -18.058835 -43.323368 -14.281793 -7.340221 14.413474 -76.876198 -46.737256 0.000000 0.000000 0.000000 -5.214503 14.991160 44.490422 16.775348 70.997781 20.765000 -78.715831 13.793083 -6.022630 0.000000 0.000000 0.000000 
-0.782404 0.734376 1.644850 -174.538163 22.542333 -170.916988 68.700207 -30.823740 -75.164047 -107.738911 -56.857119 24.730055 67.805049 23.536927 145.687444 0.000000 0.000000 0.000000 65.855668 -22.313319 -76.010708 -138.695720 -48.530107 39.304857 86.087713 -19.462269 114.833024 0.000000 0.000000 0.000000 -77.544588 -28.919849 75.974831 -24.896383 -3.560599 -17.785592 84.036178 64.488534 64.873086 11.643732 6.006389 -38.909965 0.000000 0.000000 0.000000 12.717746 -35.275414 -17.440925 -42.199890 -13.434797 -5.586919 26.023716 -75.458330 -54.790412 0.000000 0.000000 0.000000 -4.382916 16.475768 42.683243 18.935891 70.165066 21.183684 -77.285359 16.104355 -8.338514 0.000000 0.000000 0.000000 
-0.780213 0.756118 1.637175 -173.926385 23.802237 -169.990413 63.838677 -30.813182 -71.779695 -102.336140 -49.342860 27.269520 46.928738 24.769226 130.516965 0.000000 0.000000 0.000000 62.832388 -22.431018 -73.993851 -128.370004 -39.613939 37.955130 91.322751 -6.067117 101.466134 0.000000 0.000000 0.000000 -78.323888 -28.619770 75.663405 -24.571352 -3.110217 -18.604078 82.604742 64.051171 64.535903 12.701739 6.590467 -38.869459 0.000000 0.000000 0.000000 14.471296 -32.960069 -13.434343 -42.355515 -18.772961 -6.358742 33.574036 -74.138216 -61.617501 0.000000 0.000000 0.000000 -4.785229 17.736299 41.507207 17.029493 70.930006 20.443611 -76.220196 14.902529 -7.929227 0.000000 0.000000 0.000000 
-0.778494 0.772973 1.631812 -173.618531 25.176806 -169.141326 61.249811 -30.572210 -69.707773 -95.415693 -43.499482 27.658280 27.777886 22.699104 113.460856 0.000000 0.000000 0.000000 59.584685 -22.459125 -71.676353 -119.047763 -32.198829 38.153626 92.268373 7.113324 90.579321 0.000000 0.000000 0.000000 -78.602796 -28.295016 75.202690 -24.890412 -2.979005 -18.975419 81.472159 64.195260 63.254161 12.935970 6.714241 -38.512286 0.000000 0.000000 0.000000 14.555532 -34.130345 -10.919317 -40.856588 -20.378848 -5.309922 43.987173 -71.581475 -69.199735 0.000000 0.000000 0.000000 -4.035650 19.280529 39.516697 18.937807 69.739143 20.511364 -76.048777 17.005968 -9.875506 0.000000 0.000000 0.000000 
-0.777109 0.786044 1.627814 -173.241472 26.352078 -168.545264 59.322679 -30.276353 -67.882332 -90.488481 -39.487457 28.086463 17.316216 20.023786 101.343002 0.000000 0.000000 0.000000 57.920416 -22.183311 -69.997845 -109.552467 -26.653329 38.121331 84.009437 21.342693 77.128396 0.000000 0.000000 0.000000 -81.068502 -27.808037 75.617537 -24.899134 -2.456572 -20.023633 82.254951 63.949123 64.189526 11.780840 7.042774 -38.357012 0.000000 0.000000 0.000000 15.933345 -32.753297 -7.473345 -39.716087 -24.859034 -5.553733 44.864586 -67.879183 -67.608676 0.000000 0.000000 0.000000 -4.374083 20.482299 37.113904 18.685370 69.613372 20.425785 -74.991862 18.195633 -10.962705 0.000000 0.000000 0.000000 
-0.775311 0.795019 1.624508 -173.098949 27.307703 -167.643611 59.322694 -30.060510 -67.593931 -86.530742 -37.028421 27.425736 10.880657 18.440127 92.364740 0.000000 0.000000 0.000000 57.401646 -21.820750 -69.066934 -102.390645 -23.158127 37.973376 72.941570 32.020556 63.764726 0.000000 0.000000 0.000000 -81.222067 -27.610290 75.300527 -24.918715 -2.359880 -20.539178 80.361770 63.657103 62.511818 11.442151 6.654266 -36.770243 0.000000 0.000000 0.000000 16.933340 -32.401405 -5.028493 -38.545148 -27.568863 -5.683615 44.247659 -64.911249 -64.960206 0.000000 0.000000 0.000000 -4.489615 21.129170 35.005673 19.906798 69.444605 21.251199 -74.010743 18.683249 -11.460070 0.000000 0.000000 0.000000 
-0.773066 0.798549 1.621822 -172.905364 28.254258 -167.375153 59.374678 -29.832185 -67.058580 -84.028436 -35.227432 27.078903 3.508138 16.395646 84.134338 0.000000 0.000000 0.000000 56.967946 -21.524363 -68.427365 -98.072282 -21.061816 37.960834 61.561030 34.945303 53.920812 0.000000 0.000000 0.000000 -83.699139 -27.165502 75.748170 -25.111366 -2.173392 -21.885979 82.497403 63.392823 64.594964 11.099574 6.842953 -36.134193 0.000000 0.000000 0.000000 18.217588 -31.166596 -2.626507 -37.147887 -30.603609 -6.152303 41.177993 -61.457417 -59.852208 0.000000 0.000000 0.000000 -5.429738 22.181266 33.099357 18.909866 69.802332 21.252134 -72.361244 16.161127 -9.824623 0.000000 0.000000 0.000000 
-0.770145 0.798155 1.619829 -172.743128 28.503400 -166.841609 61.140047 -29.791048 -67.982814 -83.320061 -35.055278 26.017666 -0.008384 15.354119 81.003767 0.000000 0.000000 0.000000 56.782259 -21.332210 -67.879652 -94.153923 -19.702976 37.692775 51.886449 36.525647 44.678670 0.000000 0.000000 0.000000 -85.665820 -26.777420 76.592299 -25.349254 -2.078989 -22.808571 84.401833 63.778426 66.011404 9.987244 6.493778 -34.907273 0.000000 0.000000 0.000000 19.640444 -30.848090 -0.347164 -34.565884 -33.183334 -6.597349 40.851173 -58.782441 -58.013368 0.000000 0.000000 0.000000 -5.369197 23.087833 32.325951 15.417960 69.553280 18.556011 -71.216191 15.290542 -9.498895 0.000000 0.000000 0.000000 
-0.767300 0.792409 1.617895 -172.757728 28.524364 -166.635204 64.630368 -29.763896 -69.889572 -84.765787 -37.153899 23.621389 -2.204483 15.127165 81.293923 0.000000 0.000000 0.000000 58.311732 -21.119854 -68.511521 -94.605152 -20.229355 36.511919 48.947546 37.199199 42.046826 0.000000 0.000000 0.000000 -89.274805 -26.247741 77.901031 -24.253506 -1.485597 -24.333399 89.588391 63.782189 71.368965 8.101341 6.748266 -35.668759 0.000000 0.000000 0.000000 21.019810 -30.707294 0.595939 -32.724852 -34.636250 -7.301531 41.179666 -56.116750 -56.894048 0.000000 0.000000 0.000000 -6.022272 22.940398 32.281800 11.558207 70.430220 16.666020 -70.248618 12.403681 -7.768779 0.000000 0.000000 0.000000 
